<svg width="1575" height="1260" viewBox="0 0 1575 1260" fill="none" xmlns="http://www.w3.org/2000/svg">
<path d="M1400 653.8C1355.9 638.4 1309 630 1260 630C1148.61 630 1041.78 674.25 963.015 753.015C884.25 831.78 840 938.609 840 1050C840 1073.8 842.1 1096.9 845.6 1120H140C102.87 1120 67.2601 1105.25 41.0051 1078.99C14.75 1052.74 0 1017.13 0 980V140C0 62.3 62.3 0 140 0H1260C1297.13 0 1332.74 14.75 1358.99 41.005C1385.25 67.2601 1400 102.87 1400 140V653.8ZM1575 910L1225 1260L980 1015L1085 910L1225 1050L1470 805L1575 910ZM140 140V280L700 630L1260 280V140L700 490L140 140Z" fill="#015E63"/>
</svg>
