<svg width="1551" height="1551" viewBox="0 0 1551 1551" fill="none" xmlns="http://www.w3.org/2000/svg">
<path d="M1551 1462.37L96.0143 0L0 96.0143L110.786 206.8C88.6286 236.343 66.4714 273.271 66.4714 317.586V1203.87C66.4714 1285.11 132.943 1351.59 214.186 1351.59H1255.57L1454.99 1551L1551 1462.37ZM214.186 1203.87V465.3L627.786 723.8L1107.86 1203.87H214.186ZM598.243 317.586L450.529 169.871H1395.9C1477.14 169.871 1543.61 236.343 1543.61 317.586V1203.87C1543.61 1218.64 1543.61 1240.8 1536.23 1255.57L1395.9 1115.24V465.3L997.071 716.414L908.443 627.786L1395.9 317.586H598.243Z" fill="#C1C1C1"/>
</svg>
