<svg width="1040" height="1040" viewBox="0 0 1040 1040" fill="none" xmlns="http://www.w3.org/2000/svg">
<path d="M1040 924.444C1040 955.092 1027.83 984.484 1006.15 1006.15C984.484 1027.83 955.092 1040 924.444 1040H115.556C84.9083 1040 55.5163 1027.83 33.8454 1006.15C12.1746 984.484 0 955.092 0 924.444V115.556C0 84.9083 12.1746 55.5163 33.8454 33.8454C55.5163 12.1746 84.9083 0 115.556 0L924.444 0C955.092 0 984.484 12.1746 1006.15 33.8454C1027.83 55.5163 1040 84.9083 1040 115.556V924.444Z" fill="#015E63"/>
<path d="M433.333 881.111C297.931 881.111 187.778 770.958 187.778 635.556C187.778 500.153 297.931 390 433.333 390C568.736 390 678.889 500.153 678.889 635.556C678.889 770.958 568.736 881.111 433.333 881.111ZM433.333 476.667C345.742 476.667 274.445 547.964 274.445 635.556C274.445 723.147 345.742 794.444 433.333 794.444C520.925 794.444 592.222 723.147 592.222 635.556C592.222 547.964 520.925 476.667 433.333 476.667Z" fill="white"/>
<path d="M823.334 202.223H564.229C552.737 202.223 541.715 206.788 533.588 214.915C525.461 223.041 520.896 234.063 520.896 245.556C520.896 257.049 525.461 268.071 533.588 276.197C541.715 284.324 552.737 288.889 564.229 288.889H718.727L516.505 487.616L577.778 548.889L780 350.163V505.556C780 517.049 784.566 528.071 792.693 536.197C800.819 544.324 811.841 548.889 823.334 548.889C834.827 548.889 845.849 544.324 853.975 536.197C862.102 528.071 866.667 517.049 866.667 505.556V245.556C866.667 234.063 862.102 223.041 853.975 214.915C845.849 206.788 834.827 202.223 823.334 202.223Z" fill="white"/>
</svg>
