<svg width="846" height="830" viewBox="0 0 846 830" fill="none" xmlns="http://www.w3.org/2000/svg">
<path d="M845.951 414.329C845.951 404.736 841.179 396.302 833.917 391.012L834.07 390.752L731.786 332.402L790.662 231.635L790.465 231.516C792.324 227.363 793.167 222.835 792.925 218.3C792.683 213.765 791.363 209.35 789.071 205.414C786.763 201.481 783.548 198.141 779.689 195.666C775.829 193.192 771.433 191.651 766.857 191.17V190.888H648.732V74.5018H648.491C647.999 69.9864 646.438 65.649 643.934 61.841C641.429 58.033 638.052 54.8616 634.076 52.5837C630.086 50.3125 625.61 49.0059 621.011 48.7704C616.413 48.5349 611.823 49.3773 607.617 51.2288L607.474 50.9795L503.468 110.316L445.875 11.7395L445.667 11.8587C442.956 8.19194 439.408 5.20761 435.313 3.14738C431.217 1.08715 426.688 0.00892471 422.092 0C412.384 0 403.838 4.71529 398.496 11.8912L398.233 11.7395L339.686 111.942L238.872 54.4265L238.751 54.6325C234.548 52.7949 229.966 51.9619 225.377 52.201C220.787 52.4402 216.319 53.7448 212.335 56.0091C208.352 58.2882 204.97 61.464 202.463 65.2782C199.957 69.0924 198.397 73.4373 197.91 77.9597H197.613V193.663H81.1999V193.891C76.6303 194.377 72.2407 195.919 68.387 198.394C64.5333 200.869 61.3238 204.206 59.0185 208.135C56.7261 212.075 55.4062 216.494 55.1661 221.033C54.9259 225.572 55.7722 230.103 57.6363 234.258L57.384 234.41L114.933 332.911L11.8805 391.706L12.0012 391.912C8.29035 394.591 5.27018 398.096 3.1852 402.143C1.10022 406.19 0.00903192 410.666 0 415.207C0 424.8 4.77195 433.244 12.0341 438.523L11.8805 438.783L114.165 497.134L55.2888 597.9L55.4862 598.009C53.6265 602.162 52.7835 606.689 53.0256 611.224C53.2676 615.759 54.5879 620.174 56.8794 624.111C59.1878 628.044 62.4025 631.383 66.2623 633.858C70.1221 636.333 74.5182 637.873 79.0936 638.354V638.647H197.208V755.023H197.449C198.458 763.868 203.471 772.15 211.863 776.941C215.854 779.21 220.331 780.515 224.929 780.75C229.527 780.986 234.116 780.145 238.323 778.296L238.466 778.545L342.472 719.208L400.065 817.785L400.273 817.666C402.984 821.333 406.531 824.317 410.627 826.377C414.723 828.437 419.252 829.516 423.848 829.525C433.556 829.525 442.102 824.809 447.444 817.644L447.696 817.785L506.243 717.582L607.068 775.098L607.189 774.892C611.392 776.73 615.974 777.563 620.563 777.324C625.153 777.084 629.621 775.78 633.605 773.515C637.587 771.236 640.97 768.061 643.476 764.246C645.983 760.432 647.543 756.087 648.03 751.565H648.326V635.872H764.751V635.644C769.321 635.159 773.71 633.616 777.564 631.141C781.417 628.667 784.627 625.33 786.932 621.401C789.224 617.458 790.543 613.037 790.784 608.497C791.024 603.956 790.178 599.424 788.314 595.266L788.567 595.125L731.018 496.624L834.07 437.829L833.95 437.623C837.662 434.946 840.683 431.441 842.768 427.393C844.853 423.346 845.943 418.87 845.951 414.329ZM354.024 537.848L246.013 490.695L293.678 572.264L266.735 587.635L193.653 462.577L221.352 446.761L325.896 491.876L279.987 413.31L306.94 397.939L380 522.997L354.024 537.848ZM405.056 508.732L331.985 383.663L421.555 332.575L435.245 356.011L372.618 391.728L387.954 417.982L449.243 383.023L462.934 406.437L401.644 441.417L418.297 469.915L480.924 434.198L494.615 457.634L405.056 508.732ZM612.455 390.416L540.075 317.204L568.235 415.629L539.592 431.976L430.276 327.6L460.443 310.386L535.456 388.086L506.748 283.97L527.81 271.959L604.523 348.694L573.917 245.651L604.084 228.437L641.108 374.081L612.455 390.416Z" fill="#B1B1B1" fill-opacity="0.53"/>
</svg>
