<svg width="2592" height="2074" viewBox="0 0 2592 2074" fill="none" xmlns="http://www.w3.org/2000/svg">
<path d="M907.235 1036.98C1193.58 1036.98 1425.66 804.871 1425.66 518.488C1425.66 232.104 1193.58 0 907.235 0C620.889 0 388.815 232.104 388.815 518.488C388.815 804.871 620.889 1036.98 907.235 1036.98ZM1270.13 1166.6H1202.49C1112.58 1207.91 1012.54 1231.41 907.235 1231.41C801.931 1231.41 702.297 1207.91 611.979 1166.6H544.341C243.82 1166.6 0 1410.45 0 1711.01V1879.52C0 1986.86 87.0784 2073.95 194.408 2073.95H1307.8C1298.08 2046.41 1294.03 2017.24 1297.27 1987.67L1324.81 1740.98L1329.67 1696.02L1361.66 1664.02L1674.74 1350.9C1575.51 1238.7 1431.73 1166.6 1270.13 1166.6ZM1453.6 1755.16L1426.06 2002.25C1421.61 2043.57 1456.44 2078.41 1497.34 2073.55L1744 2046L2302.51 1487.41L2012.12 1196.98L1453.6 1755.16ZM2563.75 1089.23L2410.25 935.708C2372.58 898.037 2311.02 898.037 2273.35 935.708L2120.26 1088.82L2103.65 1105.43L2394.45 1395.87L2563.75 1226.55C2601.42 1188.47 2601.42 1127.31 2563.75 1089.23Z" fill="#015E63"/>
</svg>
