<svg width="1628" height="1302" viewBox="0 0 1628 1302" fill="none" xmlns="http://www.w3.org/2000/svg">
<path d="M1612.15 1164.93L990.965 684.821C1103.4 622.264 1180.22 503.762 1180.22 366.188C1180.22 164.021 1016.15 0 813.921 0C643.236 0 501.041 117.231 460.341 275.149L115.665 8.64609C97.859 -5.08594 72.4216 -2.03438 58.431 15.7664L8.5738 79.8492C-5.16238 97.65 -2.1099 123.08 15.6963 136.812L1512.43 1293.1C1530.24 1306.83 1555.67 1303.78 1569.67 1285.98L1619.52 1221.64C1633.26 1204.35 1629.95 1178.67 1612.15 1164.93V1164.93ZM504.602 813.75C315.857 813.75 162.724 966.837 162.724 1155.52V1179.94C162.724 1247.33 217.415 1302 284.824 1302H1257.04L625.176 813.75H504.602Z" fill="#F77B00"/>
</svg>
