<svg width="1502" height="1202" viewBox="0 0 1502 1202" fill="none" xmlns="http://www.w3.org/2000/svg">
<path d="M525.7 601C691.624 601 826.1 466.479 826.1 300.5C826.1 134.521 691.624 0 525.7 0C359.776 0 225.3 134.521 225.3 300.5C225.3 466.479 359.776 601 525.7 601ZM735.98 676.125H696.787C644.686 700.071 586.718 713.688 525.7 713.688C464.681 713.688 406.948 700.071 354.613 676.125H315.42C141.282 676.125 0 817.454 0 991.65V1089.31C0 1151.53 50.4578 1202 112.65 1202H938.75C1000.94 1202 1051.4 1151.53 1051.4 1089.31V991.65C1051.4 817.454 910.118 676.125 735.98 676.125ZM1494.02 374.686L1428.78 308.717C1417.98 297.683 1400.38 297.683 1389.35 308.482L1143.4 552.638L1036.61 445.116C1025.82 434.082 1008.22 434.082 997.187 444.881L931.24 510.38C920.209 521.18 920.209 538.787 931.005 549.821L1122.74 743.033C1133.54 754.067 1151.14 754.067 1162.17 743.268L1493.79 414.127C1504.58 403.093 1504.82 385.485 1494.02 374.686Z" fill="#015E63"/>
</svg>
