<svg width="1115" height="1115" viewBox="0 0 1115 1115" fill="none" xmlns="http://www.w3.org/2000/svg">
<path d="M199.062 119.438H915.688V59.7188C915.687 43.8804 909.396 28.6907 898.196 17.4912C886.997 6.29178 871.807 0 855.969 0H84.6016C62.1638 0 40.6451 8.91336 24.7792 24.7792C8.91336 40.6451 0 62.1638 0 84.6016V855.969C0 871.807 6.29178 886.997 17.4912 898.196C28.6907 909.396 43.8804 915.688 59.7188 915.688H119.438V199.062C119.438 177.945 127.827 157.692 142.759 142.759C157.692 127.827 177.945 119.438 199.062 119.438V119.438Z" fill="#7cce7f"/>
<path d="M1055.03 199.062H258.781C242.943 199.062 227.753 205.354 216.554 216.554C205.354 227.753 199.062 242.943 199.062 258.781V1055.03C199.062 1070.87 205.354 1086.06 216.554 1097.26C227.753 1108.46 242.943 1114.75 258.781 1114.75H1055.03C1070.87 1114.75 1086.06 1108.46 1097.26 1097.26C1108.46 1086.06 1114.75 1070.87 1114.75 1055.03V258.781C1114.75 242.943 1108.46 227.753 1097.26 216.554C1086.06 205.354 1070.87 199.062 1055.03 199.062ZM895.781 696.719H696.719V895.781H617.094V696.719H418.031V617.094H617.094V418.031H696.719V617.094H895.781V696.719Z" fill="#7cce7f"/>
</svg>
