<svg width="1028" height="1028" viewBox="0 0 1028 1028" fill="none" xmlns="http://www.w3.org/2000/svg">
<path d="M462.6 257H565.4V462.6H771V565.4H565.4V771H462.6V565.4H257V462.6H462.6V257ZM514 0C797.728 0 1028 230.272 1028 514C1028 797.728 797.728 1028 514 1028C230.272 1028 0 797.728 0 514C0 230.272 230.272 0 514 0ZM514 925.2C740.674 925.2 925.2 740.674 925.2 514C925.2 287.326 740.674 102.8 514 102.8C287.326 102.8 102.8 287.326 102.8 514C102.8 740.674 287.326 925.2 514 925.2Z" fill="#3F9142"/>
</svg>
