<svg width="3002" height="2359" viewBox="0 0 3002 2359" fill="none" xmlns="http://www.w3.org/2000/svg">
<path d="M2894.06 214.375H2358.12V26.7969C2358.12 12.0586 2346.07 0 2331.33 0H2143.75C2129.01 0 2116.95 12.0586 2116.95 26.7969V214.375H1621.21V26.7969C1621.21 12.0586 1609.15 0 1594.41 0H1406.84C1392.1 0 1380.04 12.0586 1380.04 26.7969V214.375H884.297V26.7969C884.297 12.0586 872.238 0 857.5 0H669.922C655.184 0 643.125 12.0586 643.125 26.7969V214.375H107.188C47.8994 214.375 0 262.274 0 321.562V2250.94C0 2310.23 47.8994 2358.12 107.188 2358.12H2894.06C2953.35 2358.12 3001.25 2310.23 3001.25 2250.94V321.562C3001.25 262.274 2953.35 214.375 2894.06 214.375ZM2760.08 2116.95H241.172V455.547H643.125V643.125C643.125 657.863 655.184 669.922 669.922 669.922H857.5C872.238 669.922 884.297 657.863 884.297 643.125V455.547H1380.04V643.125C1380.04 657.863 1392.1 669.922 1406.84 669.922H1594.41C1609.15 669.922 1621.21 657.863 1621.21 643.125V455.547H2116.95V643.125C2116.95 657.863 2129.01 669.922 2143.75 669.922H2331.33C2346.07 669.922 2358.12 657.863 2358.12 643.125V455.547H2760.08V2116.95ZM1179.06 1125.47H562.734C547.996 1125.47 535.938 1137.53 535.938 1152.27V1313.05C535.938 1327.79 547.996 1339.84 562.734 1339.84H1179.06C1193.8 1339.84 1205.86 1327.79 1205.86 1313.05V1152.27C1205.86 1137.53 1193.8 1125.47 1179.06 1125.47ZM1179.06 1581.02H562.734C547.996 1581.02 535.938 1593.07 535.938 1607.81V1768.59C535.938 1783.33 547.996 1795.39 562.734 1795.39H1179.06C1193.8 1795.39 1205.86 1783.33 1205.86 1768.59V1607.81C1205.86 1593.07 1193.8 1581.02 1179.06 1581.02ZM2211.41 986.795L1864.39 1468.13L1687.53 1223.28C1677.48 1209.21 1661.41 1201.17 1644.32 1201.17H1460.43C1438.66 1201.17 1425.93 1225.96 1438.66 1243.71L1820.85 1773.62C1825.78 1780.47 1832.27 1786.04 1839.79 1789.89C1847.3 1793.74 1855.62 1795.74 1864.06 1795.74C1872.5 1795.74 1880.82 1793.74 1888.33 1789.89C1895.84 1786.04 1902.33 1780.47 1907.27 1773.62L2459.95 1007.56C2472.68 989.81 2459.95 965.022 2438.18 965.022H2254.29C2237.54 964.688 2221.46 973.062 2211.41 986.795Z" fill="#015E63"/>
</svg>
