<svg width="822" height="708" viewBox="0 0 822 708" fill="none" xmlns="http://www.w3.org/2000/svg">
<path d="M469.698 0.705078C567.473 0.705078 650.582 35.0405 719.024 103.711C787.467 172.382 821.688 255.768 821.688 353.869C821.688 451.97 787.467 535.356 719.024 604.027C650.582 672.698 567.473 707.033 469.698 707.033C373.145 707.033 290.036 672.698 220.371 604.027L277.203 547.006C329.757 600.961 393.922 627.939 469.698 627.939C545.474 627.939 609.944 601.268 663.109 547.925C716.275 494.583 742.857 429.897 742.857 353.869C742.857 277.841 716.275 213.155 663.109 159.813C609.944 106.47 545.474 79.7991 469.698 79.7991C393.922 79.7991 329.452 106.47 276.286 159.813C223.121 213.155 196.538 277.841 196.538 353.869H313.869L154.373 512.057L152.54 506.539L0.376953 353.869H117.707C117.707 255.768 151.928 172.382 220.371 103.711C288.814 35.0405 371.923 0.705078 469.698 0.705078ZM431.199 197.52H489.864V363.066L625.527 445.839L598.028 493.663L431.199 392.496V197.52Z" fill="#7cce7f"/>
</svg>
