<svg width="1095" height="1095" viewBox="0 0 1095 1095" fill="none" xmlns="http://www.w3.org/2000/svg">
<path d="M547.5 0C245.125 0 0 245.125 0 547.5C0 849.874 245.125 1095 547.5 1095C849.874 1095 1095 849.875 1095 547.5C1095 245.125 849.874 0 547.5 0ZM547.5 118.964C784.174 118.964 975.97 310.885 975.97 547.5C975.97 784.116 784.174 975.97 547.5 975.97C310.825 975.97 119.03 784.116 119.03 547.5C119.031 310.885 310.825 118.964 547.5 118.964ZM397.325 278.629L278.629 397.325L428.804 547.5L278.629 697.675L397.325 816.371L547.5 666.196L697.675 816.371L816.371 697.675L666.196 547.5L816.371 397.325L697.675 278.629L547.5 428.804L397.325 278.629Z" fill="#7cce7f"/>
</svg>
