<svg width="1112" height="1112" viewBox="0 0 1112 1112" fill="none" xmlns="http://www.w3.org/2000/svg">
<path d="M1112 988.444C1112 1021.21 1098.98 1052.64 1075.81 1075.81C1052.64 1098.98 1021.21 1112 988.444 1112H123.556C90.7866 1112 59.3597 1098.98 36.1886 1075.81C13.0174 1052.64 0 1021.21 0 988.444V123.556C0 90.7866 13.0174 59.3597 36.1886 36.1886C59.3597 13.0174 90.7866 0 123.556 0L988.444 0C1021.21 0 1052.64 13.0174 1075.81 36.1886C1098.98 59.3597 1112 90.7866 1112 123.556V988.444Z" fill="#EA596E"/>
<path d="M556 695.003C411.224 695.003 293.444 577.223 293.444 432.447C293.444 287.671 411.224 169.892 556 169.892C700.776 169.892 818.555 287.671 818.555 432.447C818.555 577.223 700.776 695.003 556 695.003ZM556 262.558C462.314 262.558 386.111 338.792 386.111 432.447C386.111 526.102 462.314 602.336 556 602.336C649.686 602.336 725.889 526.102 725.889 432.447C725.889 338.792 649.686 262.558 556 262.558Z" fill="white"/>
<path d="M556 973.005C543.711 973.005 531.926 968.123 523.237 959.434C514.548 950.745 509.667 938.96 509.667 926.671V648.671C509.667 636.383 514.548 624.598 523.237 615.909C531.926 607.219 543.711 602.338 556 602.338C568.288 602.338 580.073 607.219 588.762 615.909C597.452 624.598 602.333 636.383 602.333 648.671V926.671C602.333 938.96 597.452 950.745 588.762 959.434C580.073 968.123 568.288 973.005 556 973.005Z" fill="white"/>
<path d="M706.584 849.45H405.417C393.129 849.45 381.344 844.568 372.655 835.879C363.966 827.19 359.084 815.405 359.084 803.117C359.084 790.828 363.966 779.043 372.655 770.354C381.344 761.665 393.129 756.783 405.417 756.783H706.584C718.872 756.783 730.657 761.665 739.347 770.354C748.036 779.043 752.917 790.828 752.917 803.117C752.917 815.405 748.036 827.19 739.347 835.879C730.657 844.568 718.872 849.45 706.584 849.45Z" fill="white"/>
</svg>
