<svg width="613" height="754" viewBox="0 0 613 754" fill="none" xmlns="http://www.w3.org/2000/svg">
<path d="M527.318 557.127V556.839H527.292C527.219 552.9 525.603 549.146 522.791 546.385C519.98 543.624 516.197 542.076 512.256 542.074H455.755C447.537 542.074 440.885 548.665 440.72 556.839H440.633V667.126H86.8165V256.791H241.111C245.106 256.791 248.937 255.204 251.761 252.379C254.586 249.555 256.172 245.724 256.172 241.729V87.4347H440.633V350.353H440.746C440.879 354.246 442.518 357.936 445.318 360.645C448.118 363.353 451.86 364.87 455.755 364.874H512.256C520.396 364.874 526.969 358.415 527.265 350.353H527.318V50.8176H527.274V15.8112C527.274 11.8167 525.687 7.98585 522.863 5.16133C520.038 2.3368 516.207 0.75 512.213 0.75H226.05L0.131836 226.668V738.741C0.131836 747.063 6.8702 753.802 15.193 753.802H512.204C516.199 753.802 520.03 752.215 522.854 749.39C525.679 746.566 527.265 742.735 527.265 738.741V717.429H527.309V557.127H527.318Z" fill="#7cce7f"/>
<path d="M596.973 408.287H371.055C367.061 408.287 363.23 409.874 360.405 412.698C357.581 415.523 355.994 419.354 355.994 423.348V483.593C355.994 491.907 362.733 498.654 371.055 498.654H596.973C600.968 498.654 604.799 497.068 607.623 494.243C610.448 491.419 612.035 487.588 612.035 483.593V423.348C612.035 419.354 610.448 415.523 607.623 412.698C604.799 409.874 600.968 408.287 596.973 408.287Z" fill="#7cce7f"/>
</svg>
