<svg width="947" height="1052" viewBox="0 0 947 1052" fill="none" xmlns="http://www.w3.org/2000/svg">
<path d="M525.942 946.8H157.783C143.834 946.8 130.456 941.258 120.593 931.394C110.73 921.529 105.188 908.15 105.188 894.2V157.8C105.188 143.85 110.73 130.471 120.593 120.606C130.456 110.742 143.834 105.2 157.783 105.2H420.753V263C420.753 304.851 437.377 344.988 466.967 374.581C496.557 404.175 536.689 420.8 578.536 420.8H736.318V526C736.318 539.95 741.859 553.329 751.723 563.194C761.586 573.058 774.964 578.6 788.913 578.6C802.861 578.6 816.239 573.058 826.102 563.194C835.966 553.329 841.507 539.95 841.507 526V368.2V365.044C840.959 360.212 839.901 355.451 838.351 350.842V346.108C835.822 340.7 832.449 335.728 828.358 331.38L512.793 15.78C508.445 11.6886 503.475 8.31506 498.067 5.78599C496.497 5.56298 494.903 5.56298 493.333 5.78599C487.991 2.72159 482.09 0.754505 475.977 0H157.783C115.936 0 75.8034 16.6253 46.2134 46.2186C16.6235 75.8118 0 115.949 0 157.8V894.2C0 936.051 16.6235 976.188 46.2134 1005.78C75.8034 1035.37 115.936 1052 157.783 1052H525.942C539.891 1052 553.268 1046.46 563.131 1036.59C572.995 1026.73 578.536 1013.35 578.536 999.4C578.536 985.45 572.995 972.071 563.131 962.206C553.268 952.342 539.891 946.8 525.942 946.8ZM525.942 179.366L662.161 315.6H578.536C564.587 315.6 551.21 310.058 541.346 300.194C531.483 290.329 525.942 276.95 525.942 263V179.366ZM262.971 315.6C249.022 315.6 235.644 321.142 225.781 331.006C215.918 340.871 210.377 354.25 210.377 368.2C210.377 382.15 215.918 395.529 225.781 405.394C235.644 415.258 249.022 420.8 262.971 420.8H315.565C329.514 420.8 342.891 415.258 352.755 405.394C362.618 395.529 368.159 382.15 368.159 368.2C368.159 354.25 362.618 340.871 352.755 331.006C342.891 321.142 329.514 315.6 315.565 315.6H262.971ZM578.536 526H262.971C249.022 526 235.644 531.542 225.781 541.406C215.918 551.271 210.377 564.65 210.377 578.6C210.377 592.55 215.918 605.929 225.781 615.794C235.644 625.658 249.022 631.2 262.971 631.2H578.536C592.485 631.2 605.862 625.658 615.726 615.794C625.589 605.929 631.13 592.55 631.13 578.6C631.13 564.65 625.589 551.271 615.726 541.406C605.862 531.542 592.485 526 578.536 526ZM931.443 804.254L826.254 699.054C821.252 694.265 815.354 690.511 808.898 688.008C796.094 682.747 781.731 682.747 768.927 688.008C762.471 690.511 756.573 694.265 751.571 699.054L646.382 804.254C636.479 814.159 630.915 827.593 630.915 841.6C630.915 855.607 636.479 869.041 646.382 878.946C656.286 888.851 669.718 894.415 683.724 894.415C697.73 894.415 711.162 888.851 721.066 878.946L736.318 863.166V999.4C736.318 1013.35 741.859 1026.73 751.723 1036.59C761.586 1046.46 774.964 1052 788.913 1052C802.861 1052 816.239 1046.46 826.102 1036.59C835.966 1026.73 841.507 1013.35 841.507 999.4V863.166L856.759 878.946C861.648 883.876 867.465 887.789 873.874 890.46C880.283 893.13 887.158 894.505 894.101 894.505C901.044 894.505 907.918 893.13 914.327 890.46C920.736 887.789 926.553 883.876 931.443 878.946C936.372 874.056 940.285 868.239 942.955 861.829C945.625 855.419 947 848.544 947 841.6C947 834.656 945.625 827.781 942.955 821.371C940.285 814.961 936.372 809.144 931.443 804.254V804.254ZM473.348 841.6C487.296 841.6 500.674 836.058 510.537 826.194C520.401 816.329 525.942 802.95 525.942 789C525.942 775.05 520.401 761.671 510.537 751.806C500.674 741.942 487.296 736.4 473.348 736.4H262.971C249.022 736.4 235.644 741.942 225.781 751.806C215.918 761.671 210.377 775.05 210.377 789C210.377 802.95 215.918 816.329 225.781 826.194C235.644 836.058 249.022 841.6 262.971 841.6H473.348Z" fill="#7cce7f"/>
</svg>
