<svg width="946" height="1051" viewBox="0 0 946 1051" fill="none" xmlns="http://www.w3.org/2000/svg">
<path d="M930.459 773.01L803.316 645.839C798.432 640.914 792.621 637.004 786.218 634.336C779.816 631.668 772.949 630.295 766.013 630.295C759.078 630.295 752.21 631.668 745.808 634.336C739.406 637.004 733.595 640.914 728.711 645.839L540.623 833.968C535.753 838.878 531.901 844.701 529.286 851.104C526.672 857.506 525.346 864.362 525.386 871.278V998.449C525.386 1012.39 530.922 1025.75 540.775 1035.61C550.627 1045.46 563.991 1051 577.925 1051H705.068C711.983 1051.04 718.837 1049.71 725.238 1047.1C731.64 1044.48 737.462 1040.63 742.371 1035.76L930.459 847.631C935.383 842.746 939.292 836.933 941.959 830.53C944.627 824.126 946 817.258 946 810.32C946 803.383 944.627 796.514 941.959 790.111C939.292 783.707 935.383 777.895 930.459 773.01V773.01ZM683.002 945.899H630.464V893.349L766.013 757.77L818.552 810.32L683.002 945.899ZM367.77 945.899H157.616C143.682 945.899 130.318 940.363 120.465 930.508C110.613 920.653 105.077 907.286 105.077 893.349V157.65C105.077 143.713 110.613 130.346 120.465 120.491C130.318 110.636 143.682 105.1 157.616 105.1H420.309V262.75C420.309 304.561 436.915 344.66 466.474 374.225C496.032 403.79 536.123 420.4 577.925 420.4H735.541V472.95C735.541 486.887 741.076 500.253 750.929 510.108C760.782 519.963 774.145 525.5 788.079 525.5C802.014 525.5 815.377 519.963 825.23 510.108C835.083 500.253 840.618 486.887 840.618 472.95V367.85V364.697C840.071 359.869 839.014 355.113 837.466 350.508V345.779C834.94 340.375 831.57 335.409 827.483 331.065L512.252 15.765C507.909 11.6774 502.943 8.30715 497.541 5.78049C495.973 5.55769 494.381 5.55769 492.812 5.78049L476 0H157.616C115.814 0 75.7233 16.6095 46.1646 46.1746C16.6059 75.7397 0 115.839 0 157.65V893.349C0 935.161 16.6059 975.259 46.1646 1004.82C75.7233 1034.39 115.814 1051 157.616 1051H367.77C381.705 1051 395.068 1045.46 404.921 1035.61C414.774 1025.75 420.309 1012.39 420.309 998.449C420.309 984.512 414.774 971.146 404.921 961.291C395.068 951.436 381.705 945.899 367.77 945.899ZM525.386 179.195L661.461 315.3H577.925C563.991 315.3 550.627 309.763 540.775 299.908C530.922 290.053 525.386 276.687 525.386 262.75V179.195ZM262.693 630.599H577.925C591.859 630.599 605.222 625.063 615.075 615.208C624.928 605.353 630.464 591.987 630.464 578.049C630.464 564.112 624.928 550.746 615.075 540.891C605.222 531.036 591.859 525.5 577.925 525.5H262.693C248.759 525.5 235.396 531.036 225.543 540.891C215.69 550.746 210.155 564.112 210.155 578.049C210.155 591.987 215.69 605.353 225.543 615.208C235.396 625.063 248.759 630.599 262.693 630.599ZM262.693 420.4H315.232C329.166 420.4 342.529 414.863 352.382 405.008C362.235 395.153 367.77 381.787 367.77 367.85C367.77 353.913 362.235 340.546 352.382 330.691C342.529 320.836 329.166 315.3 315.232 315.3H262.693C248.759 315.3 235.396 320.836 225.543 330.691C215.69 340.546 210.155 353.913 210.155 367.85C210.155 381.787 215.69 395.153 225.543 405.008C235.396 414.863 248.759 420.4 262.693 420.4ZM367.77 735.699H262.693C248.759 735.699 235.396 741.236 225.543 751.091C215.69 760.946 210.155 774.312 210.155 788.249C210.155 802.186 215.69 815.553 225.543 825.408C235.396 835.263 248.759 840.799 262.693 840.799H367.77C381.705 840.799 395.068 835.263 404.921 825.408C414.774 815.553 420.309 802.186 420.309 788.249C420.309 774.312 414.774 760.946 404.921 751.091C395.068 741.236 381.705 735.699 367.77 735.699Z" fill="#7cce7f"/>
</svg>
