<svg width="918" height="1050" viewBox="0 0 918 1050" fill="none" xmlns="http://www.w3.org/2000/svg">
<path d="M654.485 657.5L459 853.135L263.515 657.5C117.004 663.857 0 783.822 0 931.881V951.567C0 1005.91 44.0558 1050 98.3571 1050H819.643C873.944 1050 918 1005.91 918 951.567V931.881C918 783.822 800.996 663.857 654.485 657.5ZM27.8679 163.696L40.9821 166.772V286.531C26.6384 295.144 16.3929 310.114 16.3929 328.16C16.3929 345.386 25.8187 359.741 39.1379 368.559L7.17187 496.316C3.68839 510.466 11.475 525.026 22.7451 525.026H108.398C119.668 525.026 127.454 510.466 123.971 496.316L92.0049 368.559C105.324 359.741 114.75 345.386 114.75 328.16C114.75 310.114 104.504 295.144 90.1607 286.531V178.666L225.402 211.271C207.779 246.543 196.714 285.916 196.714 328.16C196.714 473.143 314.128 590.647 459 590.647C603.872 590.647 721.286 473.143 721.286 328.16C721.286 285.916 710.425 246.543 692.598 211.271L889.927 163.696C927.221 154.673 927.221 108.122 889.927 99.0992L499.777 4.76783C473.139 -1.58928 445.066 -1.58928 418.428 4.76783L27.8679 98.8941C-9.22098 107.917 -9.22098 154.673 27.8679 163.696Z" fill="#015E63"/>
</svg>
