<svg width="1892" height="1230" viewBox="0 0 1892 1230" fill="none" xmlns="http://www.w3.org/2000/svg">
<path d="M1702.8 662.308V189.231H1892V662.308H1702.8ZM1702.8 1040.77V851.538H1892V1040.77H1702.8ZM1513.6 189.231C1513.6 85.1538 1428.46 0 1324.4 0H189.2C85.14 0 0 85.1538 0 189.231V1040.77C0 1144.85 85.14 1230 189.2 1230H1324.4C1428.46 1230 1513.6 1144.85 1513.6 1040.77V189.231ZM1324.4 189.231L756.8 567.692L189.2 189.231H1324.4ZM1324.4 1040.77H189.2V378.462L756.8 756.923L1324.4 378.462V1040.77Z" fill="#F77B00"/>
</svg>
