<svg width="881" height="622" viewBox="0 0 881 622" fill="none" xmlns="http://www.w3.org/2000/svg">
<path d="M714.937 258.914C720.111 243.392 725.285 227.869 725.285 207.172C725.285 93.3379 632.149 0.201172 518.315 0.201172C440.701 0.201172 368.261 46.7695 337.216 114.035C321.693 108.861 300.996 103.686 285.473 103.686C213.033 103.686 156.117 160.603 156.117 233.043C156.117 243.392 156.117 253.74 161.291 258.914C68.1541 274.437 0.888672 346.877 0.888672 440.013C0.888672 538.324 83.6769 621.113 181.988 621.113H699.414C797.725 621.113 880.513 538.324 880.513 440.013C880.513 346.877 808.073 269.263 714.937 258.914ZM388.958 564.196L223.382 398.619L295.822 326.18L388.958 419.316L585.58 222.694L658.02 295.134L388.958 564.196V564.196Z" fill="#C1EAC5"/>
</svg>
