<svg width="1612" height="1290" viewBox="0 0 1612 1290" fill="none" xmlns="http://www.w3.org/2000/svg">
<path d="M1249.3 564.375C1048.81 564.375 886.6 726.633 886.6 927.188C886.6 1127.74 1048.81 1290 1249.3 1290C1449.79 1290 1612 1127.74 1612 927.188C1612 726.633 1449.79 564.375 1249.3 564.375ZM1410.5 943.061C1410.5 956.414 1399.42 967.5 1386.07 967.5H1233.43C1220.08 967.5 1209 956.414 1209 943.061V750.064C1209 736.711 1220.08 725.625 1233.43 725.625H1265.17C1278.52 725.625 1289.6 736.711 1289.6 750.064V886.875H1386.07C1399.42 886.875 1410.5 897.961 1410.5 911.314V943.061ZM806 927.188C806 857.145 822.876 790.881 851.841 731.924C831.691 728.145 811.037 725.625 789.88 725.625H747.817C691.901 751.324 629.687 765.938 564.2 765.938C498.712 765.938 436.751 751.324 380.583 725.625H338.52C151.629 725.625 0 877.301 0 1064.25V1169.06C0 1235.83 54.1531 1290 120.9 1290H995.158C881.059 1209.63 806 1077.1 806 927.188ZM564.2 645C742.276 645 886.6 500.631 886.6 322.5C886.6 144.369 742.276 0 564.2 0C386.124 0 241.8 144.369 241.8 322.5C241.8 500.631 386.124 645 564.2 645Z" fill="#F77B00"/>
</svg>
